<?xml version="1.0" encoding="UTF-8" standalone="no"?>
<svg width="385px" height="443px" viewBox="0 0 385 443" version="1.1" xmlns="http://www.w3.org/2000/svg" xmlns:xlink="http://www.w3.org/1999/xlink" xmlns:sketch="http://www.bohemiancoding.com/sketch/ns">
    <!-- Generator: Sketch 3.2.2 (9983) - http://www.bohemiancoding.com/sketch -->
    <title>nodeschool-bp</title>
    <desc>Created with Sketch.</desc>
    <defs></defs>
    <g id="Page-1" stroke="none" stroke-width="1" fill="none" fill-rule="evenodd" sketch:type="MSPage">
        <g id="nodeschool-bp" sketch:type="MSLayerGroup" transform="translate(-1.000000, -1.000000)">
            <g id="g4137" transform="translate(0.399990, 0.500000)">
                <path d="M193,227.7 C195.9,227.7 198.3,225.3 198.3,222.4 C198.3,219.5 195.9,217.1 193,217.1 C190.1,217.1 187.7,219.5 187.7,222.4 C187.7,225.3 190.1,227.7 193,227.7 L193,227.7 Z M193,221.9 C193.3,221.9 193.5,222.1 193.5,222.4 C193.5,222.7 193.3,222.9 193,222.9 C192.7,222.9 192.5,222.7 192.5,222.4 C192.5,222.1 192.7,221.9 193,221.9 L193,221.9 Z" id="path4139" fill="#000000" sketch:type="MSShapeGroup"></path>
                <path d="M289.5,147.4 C289.5,146.1 288.4,145 287.1,145 L98.5,145 C97.2,145 96.1,146.1 96.1,147.4 C96.1,148.7 97.2,149.8 98.5,149.8 L287.1,149.8 C288.4,149.8 289.5,148.7 289.5,147.4 L289.5,147.4 Z" id="path4141" fill="#000000" sketch:type="MSShapeGroup"></path>
                <path d="M269.8,78.3 L193.9,34.5 L193.9,34.5 C193.8,34.4 193.7,34.4 193.6,34.4 L193.6,34.4 L193.5,34.4 L193.4,34.4 L193.1,34.4 C193.1,34.4 193.1,34.4 193,34.4 L192.9,34.4 L192.5,34.4 L192.5,34.4 C192.4,34.4 192.3,34.5 192.2,34.5 L192.2,34.5 L117.5,77.6 C116.6,78.1 116.3,79.2 116.8,80.1 C117.3,81 118.5,81.3 119.3,80.8 L185.7,42.5 L157.5,78.5 C156.9,79.3 157,80.5 157.8,81.1 C158.6,81.7 159.8,81.6 160.4,80.8 L191.2,41.5 L191.2,79.9 C191.2,80.9 192,81.8 193.1,81.8 C194.2,81.8 195,81 195,79.9 L195,41.5 L225.8,80.8 C226.2,81.3 226.7,81.5 227.3,81.5 C227.7,81.5 228.1,81.4 228.4,81.1 C229.2,80.5 229.3,79.3 228.7,78.5 L200.5,42.5 L268.1,81.5 C268.4,81.7 268.7,81.7 269,81.7 C269.6,81.7 270.3,81.4 270.6,80.8 C271,80 270.7,78.8 269.8,78.3 L269.8,78.3 Z" id="path4143" fill="#000000" sketch:type="MSShapeGroup"></path>
                <path d="M269.3,361.2 C268.8,360.3 267.6,360 266.8,360.5 L200.5,398.8 L228.7,362.8 C229.3,362 229.2,360.8 228.4,360.2 C227.6,359.6 226.4,359.7 225.8,360.5 L195,399.8 L195,361.4 C195,360.4 194.2,359.5 193.1,359.5 C192,359.5 191.2,360.3 191.2,361.4 L191.2,399.8 L160.4,360.5 C159.8,359.7 158.6,359.6 157.8,360.2 C157,360.8 156.9,362 157.5,362.8 L185.7,398.8 L118.1,359.8 C117.2,359.3 116.1,359.6 115.6,360.5 C115.1,361.4 115.4,362.5 116.3,363 L192.2,406.8 L192.3,406.8 C192.4,406.8 192.4,406.9 192.5,406.9 L192.6,406.9 L192.7,406.9 L192.8,406.9 C192.9,406.9 193.1,407 193.2,407 L193.2,407 L193.2,407 C193.4,407 193.5,407 193.6,406.9 L193.7,406.9 L193.8,406.9 C193.9,406.9 193.9,406.8 194,406.8 L194.1,406.8 L268.8,363.7 C269.5,363.3 269.8,362.1 269.3,361.2 L269.3,361.2 Z" id="path4145" fill="#000000" sketch:type="MSShapeGroup"></path>
                <circle id="circle4147" fill="#000000" sketch:type="MSShapeGroup" cx="274.29999" cy="357.70001" r="2.3"></circle>
                <circle id="circle4147-2" fill="#000000" sketch:type="MSShapeGroup" cx="193.29999" cy="345.70001" r="2.3"></circle>
                <rect id="Rectangle-1" fill="#D7001B" sketch:type="MSShapeGroup" x="100" y="160" width="22" height="102"></rect>
                <rect id="Rectangle-4" fill="#187E30" sketch:type="MSShapeGroup" x="259" y="162" width="36" height="7"></rect>
                <rect id="Rectangle-3" fill="#187E30" sketch:type="MSShapeGroup" x="265.60001" y="161.5" width="21" height="101"></rect>
                <rect id="Rectangle-2" fill="#D7001B" sketch:type="MSShapeGroup" x="93" y="161" width="36" height="8"></rect>
                <circle id="circle4149" fill="#000000" sketch:type="MSShapeGroup" cx="110.79999" cy="357.70001" r="2.3"></circle>
                <path d="M382,108.5 L196.4,1.4 C194.3,0.2 191.7,0.2 189.6,1.4 L4,108.5 C1.9,109.7 0.6,112 0.6,114.4 L0.6,328.7 C0.6,331.1 1.9,333.4 4,334.6 L189.6,441.7 C190.7,442.3 191.8,442.6 193,442.6 C194.2,442.6 195.4,442.3 196.4,441.7 L382,334.6 C384.1,333.4 385.4,331.1 385.4,328.7 L385.4,114.4 C385.4,112 384.1,109.7 382,108.5 L382,108.5 Z M193,15.1 L371.8,118.3 L371.8,148.6 L349.9,148.6 C348.6,148.6 347.5,149.7 347.5,151 L347.5,158.1 L320.4,158.1 L320.4,102.9 C320.4,101.6 319.3,100.5 318,100.5 L65,100.5 C63.7,100.5 62.6,101.6 62.6,102.9 L62.6,158.1 L35.5,158.1 L35.5,151 C35.5,149.7 34.4,148.6 33.1,148.6 L14,148.6 L14,118.3 L193,15.1 L193,15.1 Z M353.3,272.9 L369.4,272.9 L369.4,284.7 L353.3,284.7 L353.3,272.9 L353.3,272.9 Z M353.3,268.1 L353.3,256.3 L369.4,256.3 L369.4,268.1 L353.3,268.1 L353.3,268.1 Z M371.8,214.3 L371.5,213.8 L371.8,213.8 L371.8,214.3 L371.8,214.3 Z M368.8,209 L366.2,204.5 L371.8,204.5 L371.8,209 L368.8,209 L368.8,209 Z M366.2,199.8 L369.2,194.5 L371.8,194.5 L371.8,199.8 L366.2,199.8 L366.2,199.8 Z M371.8,180.7 L360,201 L360,201.1 C359.9,201.2 359.9,201.4 359.8,201.5 L359.8,201.6 C359.8,201.8 359.7,202 359.7,202.2 C359.7,202.4 359.7,202.6 359.8,202.8 L359.8,202.9 C359.8,203 359.9,203.2 360,203.3 L360,203.4 L371.8,223.8 L371.8,251.6 L351,251.6 C349.7,251.6 348.6,252.7 348.6,254 L348.6,270.5 L348.6,287 C348.6,288.3 349.7,289.4 351,289.4 L371.8,289.4 L371.8,312.5 L341.5,312.5 L341.5,172.3 L350,172.3 L371.9,172.3 L371.9,180.7 L371.8,180.7 Z M16.5,194.6 L19.5,199.9 L14.2,199.9 L14.2,194.6 L16.5,194.6 L16.5,194.6 Z M19.6,204.6 L17,209 L14.3,209 L14.3,204.5 L19.6,204.5 L19.6,204.6 Z M30,268.1 L16.3,268.1 L16.3,256.3 L30,256.3 L30,268.1 L30,268.1 Z M30,272.9 L30,284.7 L16.3,284.7 L16.3,272.9 L30,272.9 L30,272.9 Z M14.3,289.4 L32.4,289.4 C33.7,289.4 34.8,288.3 34.8,287 L34.8,270.5 L34.8,254 C34.8,252.7 33.7,251.6 32.4,251.6 L14.3,251.6 L14.3,223.3 L25.8,203.4 L25.8,203.3 C25.9,203.2 25.9,203 26,202.9 L26,202.8 C26,202.6 26.1,202.4 26.1,202.2 C26.1,202 26.1,201.8 26,201.6 L26,201.5 C26,201.4 25.9,201.2 25.8,201.1 L25.8,201 L14.3,181.1 L14.3,172.2 L33.4,172.2 L41.9,172.2 L41.9,312.5 L14.3,312.5 L14.3,289.4 L14.3,289.4 Z M31,160.4 L31,167.5 L14.3,167.5 L14.3,153.3 L31,153.3 L31,160.4 L31,160.4 Z M44.2,167.5 L35.7,167.5 L35.7,162.8 L62.8,162.8 L62.8,307 L62.8,312.5 L46.5,312.5 L46.5,169.9 C46.5,168.6 45.5,167.5 44.2,167.5 L44.2,167.5 Z M315.7,160.4 L315.7,304.6 L312.5,304.6 L312.5,292.4 C312.5,291.1 311.4,290 310.1,290 L304.6,290 L304.6,277.8 C304.6,276.5 303.5,275.4 302.2,275.4 L296.7,275.4 L296.7,263.2 C296.7,261.9 295.6,260.8 294.3,260.8 L289.6,260.8 L289.6,172.1 L294.3,172.1 C295.6,172.1 296.7,171 296.7,169.7 L296.7,162.6 L302.2,162.6 C303.5,162.6 304.6,161.5 304.6,160.2 L304.6,134.2 C304.6,132.9 303.5,131.8 302.2,131.8 L84.9,131.8 C83.6,131.8 82.5,132.9 82.5,134.2 L82.5,160.2 C82.5,161.5 83.6,162.6 84.9,162.6 L90.4,162.6 L90.4,169.7 C90.4,171 91.5,172.1 92.8,172.1 L97.5,172.1 L97.5,260.8 L92.8,260.8 C91.5,260.8 90.4,261.9 90.4,263.2 L90.4,275.4 L84.9,275.4 C83.6,275.4 82.5,276.5 82.5,277.8 L82.5,290 L73.3,290 C72,290 70.9,291.1 70.9,292.4 L70.9,304.6 L67.5,304.6 L67.5,160.4 L67.5,105.2 L315.7,105.2 L315.7,160.4 L315.7,160.4 Z M99.8,167.5 L95.1,167.5 L95.1,162.8 L127.4,162.8 L127.4,167.5 L122.7,167.5 C121.4,167.5 120.3,168.6 120.3,169.9 L120.3,260.9 L102.2,260.9 L102.2,169.9 C102.2,168.6 101.1,167.5 99.8,167.5 L99.8,167.5 Z M87.2,158.1 L87.2,136.8 L300,136.8 L300,158.1 L294.5,158.1 L258.3,158.1 L129.8,158.1 L92.8,158.1 L87.2,158.1 L87.2,158.1 Z M285,169.9 L285,260.9 L267.7,260.9 L267.7,169.9 C267.7,168.6 266.6,167.5 265.3,167.5 L260.6,167.5 L260.6,162.8 L292.1,162.8 L292.1,167.5 L287.4,167.5 C286.1,167.5 285,168.6 285,169.9 L285,169.9 Z M215.9,239.2 L230.5,239.2 L218.3,260.3 L215.9,260.3 L215.9,239.2 L215.9,239.2 Z M233.3,234.5 L216,234.5 L216,220.5 L241.4,220.5 L233.3,234.5 L233.3,234.5 Z M215.9,215.8 L215.9,200.3 L232.3,200.3 L241.3,215.8 L215.9,215.8 L215.9,215.8 Z M215.9,195.5 L215.9,176 L218.3,176 L229.5,195.5 L215.9,195.5 L215.9,195.5 Z M211.2,218.2 L211.2,260.3 L176.5,260.3 L176.5,236.9 L176.5,218.2 L176.5,197.9 L176.5,176 L211.2,176 L211.2,218.2 L211.2,218.2 Z M171.8,195.5 L158.5,195.5 L169.7,176 L171.8,176 L171.8,195.5 L171.8,195.5 Z M155.7,200.2 L171.8,200.2 L171.8,215.7 L146.8,215.7 L155.7,200.2 L155.7,200.2 Z M171.8,220.5 L171.8,234.5 L154.8,234.5 L146.7,220.5 L171.8,220.5 L171.8,220.5 Z M171.8,239.2 L171.8,260.3 L169.7,260.3 L157.5,239.2 L171.8,239.2 L171.8,239.2 Z M247.5,219.3 L247.5,219.3 C247.6,219.1 247.7,219 247.7,218.8 L247.7,218.7 C247.7,218.5 247.8,218.3 247.8,218.1 C247.8,217.9 247.8,217.7 247.7,217.5 L247.7,217.4 C247.7,217.3 247.6,217.1 247.5,217 L247.5,216.9 L221.8,172.4 C221.4,171.7 220.6,171.2 219.8,171.2 L213.6,171.2 L174.2,171.2 L168.4,171.2 C167.6,171.2 166.8,171.7 166.4,172.4 L140.6,217 L140.6,217.1 C140.5,217.2 140.5,217.4 140.4,217.5 L140.4,217.6 C140.4,217.8 140.3,218 140.3,218.2 C140.3,218.4 140.3,218.6 140.4,218.8 L140.4,218.9 C140.4,219 140.5,219.2 140.6,219.3 L140.6,219.4 L164.6,261 L125,261 L125,172.3 L129.7,172.3 C131,172.3 132.1,171.2 132.1,169.9 L132.1,162.8 L255.8,162.8 L255.8,169.9 C255.8,171.2 256.9,172.3 258.2,172.3 L262.9,172.3 L262.9,261 L223.4,261 L247.5,219.3 L247.5,219.3 Z M287.4,265.6 L292.1,265.6 L292.1,275.5 L95.1,275.5 L95.1,265.6 L99.8,265.6 L287.4,265.6 L287.4,265.6 Z M294.5,280.2 L300,280.2 L300,290.1 L87.2,290.1 L87.2,280.2 L92.7,280.2 L294.5,280.2 L294.5,280.2 Z M302.3,294.8 L307.8,294.8 L307.8,304.7 L75.7,304.7 L75.7,294.8 L84.9,294.8 L302.3,294.8 L302.3,294.8 Z M67.5,314.9 L67.5,309.4 L73.3,309.4 L310.2,309.4 L315.7,309.4 L315.7,314.9 L315.7,319.2 L67.5,319.2 L67.5,314.9 L67.5,314.9 Z M320.5,307 L320.5,162.8 L347.6,162.8 L347.6,167.5 L339.1,167.5 C337.8,167.5 336.7,168.6 336.7,169.9 L336.7,312.5 L320.4,312.5 L320.4,307 L320.5,307 Z M352.3,167.5 L352.3,160.4 L352.3,153.3 L371.8,153.3 L371.8,167.5 L352.3,167.5 L352.3,167.5 Z M193,428 L14.3,324.8 L14.3,317.3 L44.2,317.3 L62.8,317.3 L62.8,321.6 C62.8,322.9 63.9,324 65.2,324 L318.2,324 C319.5,324 320.6,322.9 320.6,321.6 L320.6,317.3 L339.2,317.3 L371.9,317.3 L371.9,324.8 L193,428 L193,428 Z" id="path4157" fill="#000000" sketch:type="MSShapeGroup"></path>
                <path d="M126.1,125.6 C126.9,125.6 127.5,125 127.5,124.2 L127.5,117.1 L133.3,124.7 C133.7,125.2 134.1,125.6 134.8,125.6 L134.9,125.6 C135.7,125.6 136.4,125 136.4,124.1 L136.4,113.6 C136.4,112.8 135.8,112.2 135,112.2 C134.2,112.2 133.6,112.8 133.6,113.6 L133.6,120.4 L128,113 C127.6,112.5 127.2,112.1 126.5,112.1 L126.2,112.1 C125.4,112.1 124.7,112.7 124.7,113.6 L124.7,124.1 C124.7,125 125.3,125.6 126.1,125.6 L126.1,125.6 Z" id="path4159" fill="#000000" sketch:type="MSShapeGroup"></path>
                <path d="M146,125.7 C150.1,125.7 153.1,122.6 153.1,118.9 L153.1,118.9 C153.1,115.1 150.2,112.1 146.1,112.1 C142,112.1 139,115.2 139,118.9 L139,118.9 C139,122.7 141.9,125.7 146,125.7 L146,125.7 Z M142.1,118.9 C142.1,116.6 143.7,114.8 146.1,114.8 C148.4,114.8 150.1,116.7 150.1,119 L150.1,119 C150.1,121.3 148.5,123.1 146.1,123.1 C143.7,123 142.1,121.2 142.1,118.9 L142.1,118.9 L142.1,118.9 Z" id="path4161" fill="#000000" sketch:type="MSShapeGroup"></path>
                <path d="M157.1,125.5 L160.8,125.5 C165,125.5 167.8,122.6 167.8,118.9 L167.8,118.9 C167.8,115.2 164.9,112.3 160.8,112.3 L157.1,112.3 C156.3,112.3 155.6,112.9 155.6,113.8 L155.6,124 C155.7,124.9 156.3,125.5 157.1,125.5 L157.1,125.5 Z M158.6,114.9 L160.8,114.9 C163.2,114.9 164.8,116.5 164.8,118.9 L164.8,118.9 C164.8,121.2 163.2,122.9 160.8,122.9 L158.6,122.9 L158.6,114.9 L158.6,114.9 Z" id="path4163" fill="#000000" sketch:type="MSShapeGroup"></path>
                <path d="M171.9,125.5 L179.3,125.5 C180,125.5 180.6,124.9 180.6,124.2 C180.6,123.5 180,122.9 179.3,122.9 L173.3,122.9 L173.3,120.1 L178.3,120.1 C179,120.1 179.6,119.5 179.6,118.8 C179.6,118.1 179,117.5 178.3,117.5 L173.3,117.5 L173.3,114.8 L179.2,114.8 C179.9,114.8 180.5,114.2 180.5,113.5 C180.5,112.8 179.9,112.2 179.2,112.2 L171.9,112.2 C171.1,112.2 170.4,112.8 170.4,113.7 L170.4,124 C170.5,124.9 171.1,125.5 171.9,125.5 L171.9,125.5 Z" id="path4165" fill="#000000" sketch:type="MSShapeGroup"></path>
                <path d="M182.9,124.1 C184.4,125.2 186.1,125.7 187.9,125.7 C190.8,125.7 192.8,124.2 192.8,121.6 L192.8,121.6 C192.8,119.3 191.3,118.3 188.6,117.6 C186.3,117 185.7,116.7 185.7,115.9 L185.7,115.9 C185.7,115.3 186.3,114.7 187.4,114.7 C188.3,114.7 189.2,115 190.2,115.6 C190.4,115.7 190.7,115.8 190.9,115.8 C191.7,115.8 192.3,115.2 192.3,114.5 C192.3,113.9 192,113.5 191.7,113.3 C190.5,112.5 189.1,112.1 187.5,112.1 C184.8,112.1 182.9,113.7 182.9,116.1 L182.9,116.1 C182.9,118.7 184.6,119.5 187.3,120.1 C189.5,120.7 190,121 190,121.8 L190,121.8 C190,122.6 189.3,123 188.1,123 C186.8,123 185.7,122.5 184.7,121.8 C184.5,121.7 184.2,121.5 183.9,121.5 C183.1,121.5 182.5,122.1 182.5,122.8 C182.3,123.5 182.6,123.9 182.9,124.1 L182.9,124.1 Z" id="path4167" fill="#000000" sketch:type="MSShapeGroup"></path>
                <path d="M201.4,125.7 C203.5,125.7 204.9,125.1 206.1,124 C206.4,123.8 206.6,123.4 206.6,123 C206.6,122.3 206,121.7 205.2,121.7 C204.9,121.7 204.6,121.8 204.3,122 C203.5,122.7 202.7,123 201.4,123 C199.1,123 197.6,121.1 197.6,118.8 L197.6,118.8 C197.6,116.5 199.2,114.7 201.4,114.7 C202.4,114.7 203.3,115 204.1,115.6 C204.3,115.7 204.6,115.9 205,115.9 C205.8,115.9 206.4,115.3 206.4,114.5 C206.4,114 206.1,113.6 205.8,113.3 C204.7,112.5 203.4,112 201.4,112 C197.3,112 194.5,115.1 194.5,118.8 L194.5,118.8 C194.7,122.7 197.6,125.7 201.4,125.7 L201.4,125.7 Z" id="path4169" fill="#000000" sketch:type="MSShapeGroup"></path>
                <path d="M210.7,125.6 C211.5,125.6 212.2,125 212.2,124.1 L212.2,120.1 L217.6,120.1 L217.6,124.1 C217.6,124.9 218.2,125.6 219.1,125.6 C219.9,125.6 220.6,125 220.6,124.1 L220.6,113.6 C220.6,112.8 220,112.1 219.1,112.1 C218.3,112.1 217.6,112.7 217.6,113.6 L217.6,117.5 L212.2,117.5 L212.2,113.6 C212.2,112.8 211.6,112.1 210.7,112.1 C209.9,112.1 209.2,112.7 209.2,113.6 L209.2,124.1 C209.2,125 209.8,125.6 210.7,125.6 L210.7,125.6 Z" id="path4171" fill="#000000" sketch:type="MSShapeGroup"></path>
                <path d="M230,125.7 C234.1,125.7 237,122.6 237,118.9 L237,118.9 C237,115.1 234.1,112.1 230,112.1 C225.9,112.1 222.9,115.2 222.9,118.9 L222.9,118.9 C223,122.7 225.9,125.7 230,125.7 L230,125.7 Z M226,118.9 C226,116.6 227.6,114.8 230,114.8 C232.3,114.8 234,116.7 234,119 L234,119 C234,121.3 232.4,123.1 230,123.1 C227.7,123 226,121.2 226,118.9 L226,118.9 L226,118.9 Z" id="path4173" fill="#000000" sketch:type="MSShapeGroup"></path>
                <path d="M246.1,125.7 C250.2,125.7 253.2,122.6 253.2,118.9 L253.2,118.9 C253.2,115.1 250.3,112.1 246.2,112.1 C242.1,112.1 239.1,115.2 239.1,118.9 L239.1,118.9 C239.1,122.7 242,125.7 246.1,125.7 L246.1,125.7 Z M242.1,118.9 C242.1,116.6 243.7,114.8 246.1,114.8 C248.4,114.8 250.1,116.7 250.1,119 L250.1,119 C250.1,121.3 248.5,123.1 246.1,123.1 C243.8,123 242.1,121.2 242.1,118.9 L242.1,118.9 L242.1,118.9 Z" id="path4175" fill="#000000" sketch:type="MSShapeGroup"></path>
                <path d="M257.2,125.5 L264,125.5 C264.7,125.5 265.3,124.9 265.3,124.2 C265.3,123.5 264.7,122.9 264,122.9 L258.6,122.9 L258.6,113.7 C258.6,112.9 258,112.2 257.1,112.2 C256.3,112.2 255.6,112.8 255.6,113.7 L255.6,124 C255.7,124.9 256.4,125.5 257.2,125.5 L257.2,125.5 Z" id="path4177" fill="#000000" sketch:type="MSShapeGroup"></path>
                <text id="B" sketch:type="MSTextLayer" transform="translate(152.600010, 350.000000) rotate(-30.000000) translate(-152.600010, -350.000000) " font-family="Avenir" font-size="18" font-weight="686" fill="#000000">
                    <tspan x="146.60001" y="355.5">B</tspan>
                </text>
                <text id="P" sketch:type="MSTextLayer" transform="translate(234.600010, 350.000000) rotate(30.000000) translate(-234.600010, -350.000000) " font-family="Avenir" font-size="18" font-weight="686" fill="#000000">
                    <tspan x="228.60001" y="355.5">P</tspan>
                </text>
            </g>
        </g>
    </g>
</svg>